<svg xmlns="http://www.w3.org/2000/svg" version="1.1" xmlns:xlink="http://www.w3.org/1999/xlink" xmlns:svgjs="http://svgjs.com/svgjs" width="1440" height="560" preserveAspectRatio="none" viewBox="0 0 1440 560"><g mask="url(&quot;#SvgjsMask1003&quot;)" fill="none"><rect width="1440" height="560" x="0" y="0" fill="#0e2a47"></rect><path d="M 0,54 C 57.6,94.8 172.8,249.6 288,258 C 403.2,266.4 460.8,116.4 576,96 C 691.2,75.6 748.8,168.2 864,156 C 979.2,143.8 1036.8,24.4 1152,35 C 1267.2,45.6 1382.4,174.2 1440,209L1440 560L0 560z" fill="rgba(24, 106, 192, 1)"></path><path d="M 0,373 C 96,405 288,525.2 480,533 C 672,540.8 768,420.6 960,412 C 1152,403.4 1344,474.4 1440,490L1440 560L0 560z" fill="rgba(171, 151, 34, 1)"></path></g><defs><mask id="SvgjsMask1003"><rect width="1440" height="560" fill="#ffffff"></rect></mask></defs></svg>